<svg xmlns="http://www.w3.org/2000/svg" xmlns:xlink="http://www.w3.org/1999/xlink" viewBox="0 0 998 1004"><defs><style>.a{opacity:0.85;}.b{fill:url(#a);}.c,.d{font-size:327.11px;font-family:OCRAExtended, OCR A Extended;}.d{fill:#231f20;}.e{fill:url(#b);}</style><linearGradient id="a" x1="220.62" y1="502" x2="777.38" y2="502" gradientUnits="userSpaceOnUse"><stop offset="0" stop-color="#1f00aa"/><stop offset="0.42" stop-color="#7200b2"/><stop offset="1" stop-color="#e900bd"/></linearGradient><linearGradient id="b" x1="295.7" y1="501.81" x2="708.22" y2="501.81" gradientUnits="userSpaceOnUse"><stop offset="0" stop-color="#1f00aa" stop-opacity="0.8"/><stop offset="0.13" stop-color="#2d00ab" stop-opacity="0.79"/><stop offset="0.35" stop-color="#5200af" stop-opacity="0.77"/><stop offset="0.64" stop-color="#8e00b4" stop-opacity="0.74"/><stop offset="0.97" stop-color="#e200bc" stop-opacity="0.7"/><stop offset="0.99" stop-color="#e900bd" stop-opacity="0.7"/></linearGradient></defs><title>logo</title><g class="a"><path class="b" d="M501.55,213.49a16.74,16.74,0,0,1,8.51,2.32L744.14,353.89a16.82,16.82,0,0,1,8.24,14.6l-2.55,271.75a16.81,16.81,0,0,1-8.51,14.44L504.7,788.35a16.8,16.8,0,0,1-16.76-.16L253.86,650.11a16.82,16.82,0,0,1-8.24-14.6l2.55-271.75a16.81,16.81,0,0,1,8.51-14.44L493.3,215.65a16.88,16.88,0,0,1,8.25-2.16m0-25a41.63,41.63,0,0,0-20.54,5.4L244.39,327.56a41.75,41.75,0,0,0-21.22,36l-2.55,271.75a41.76,41.76,0,0,0,20.54,36.36L475.23,809.72a41.77,41.77,0,0,0,41.76.39L753.61,676.44a41.75,41.75,0,0,0,21.22-36l2.55-271.75a41.76,41.76,0,0,0-20.54-36.36L522.77,194.28a41.75,41.75,0,0,0-21.22-5.79Z"/></g><g class="a"><text class="c" transform="translate(270.17 607.94) scale(0.77 1)">&lt;/&gt;</text><text class="d" transform="translate(270.17 607.94) scale(0.77 1)">&lt;/&gt;</text><path class="e" d="M295.7,506.77V496.4A15.24,15.24,0,0,1,302,483.62l81.62-62.55a10.23,10.23,0,0,1,6.66-2.88c2.63,0,5,1.33,7.09,4a15.27,15.27,0,0,1,3.15,9.75c0,5-1.52,8.69-4.57,11l-76.33,58.51L396,559.65q4.53,3.84,4.53,11.36a15.3,15.3,0,0,1-3.15,9.77c-2.09,2.67-4.46,4-7.09,4-2.06,0-4.28-.95-6.66-2.87L302,519.54Q295.7,515.07,295.7,506.77Z"/><path class="e" d="M552.21,419,468.09,603.77a6.56,6.56,0,0,1-6.28,4.17,10.51,10.51,0,0,1-7.58-3.59,12.61,12.61,0,0,1-3.51-9.19,26.1,26.1,0,0,1,2.47-10.54L537.37,400q2.08-4.37,6.51-4.37a10.54,10.54,0,0,1,7.42,3.43,12.06,12.06,0,0,1,3.5,9A25.73,25.73,0,0,1,552.21,419Z"/><path class="e" d="M708.22,496.36v10.41q0,8.16-6,12.81l-81.67,62.33c-2.39,1.92-4.65,2.87-6.79,2.87q-3.94,0-7.09-3.83a14.86,14.86,0,0,1-3.14-9.75q0-7.68,4.66-11.19l76.24-58.52-76.24-58.14q-4.66-3.86-4.66-11.54a14.9,14.9,0,0,1,3.14-9.77q3.15-3.85,7.09-3.85,3.09,0,6.79,2.88l81.65,62.47Q708.22,488.19,708.22,496.36Z"/></g><g class="a"><path class="b" d="M501.55,213.49a16.74,16.74,0,0,1,8.51,2.32L744.14,353.89a16.82,16.82,0,0,1,8.24,14.6l-2.55,271.75a16.81,16.81,0,0,1-8.51,14.44L504.7,788.35a16.8,16.8,0,0,1-16.76-.16L253.86,650.11a16.82,16.82,0,0,1-8.24-14.6l2.55-271.75a16.81,16.81,0,0,1,8.51-14.44L493.3,215.65a16.88,16.88,0,0,1,8.25-2.16m0-25a41.63,41.63,0,0,0-20.54,5.4L244.39,327.56a41.75,41.75,0,0,0-21.22,36l-2.55,271.75a41.76,41.76,0,0,0,20.54,36.36L475.23,809.72a41.77,41.77,0,0,0,41.76.39L753.61,676.44a41.75,41.75,0,0,0,21.22-36l2.55-271.75a41.76,41.76,0,0,0-20.54-36.36L522.77,194.28a41.75,41.75,0,0,0-21.22-5.79Z"/></g><g class="a"><text class="c" transform="translate(270.17 607.94) scale(0.77 1)">&lt;/&gt;</text><text class="d" transform="translate(270.17 607.94) scale(0.77 1)">&lt;/&gt;</text><path class="e" d="M295.7,506.77V496.4A15.24,15.24,0,0,1,302,483.62l81.62-62.55a10.23,10.23,0,0,1,6.66-2.88c2.63,0,5,1.33,7.09,4a15.27,15.27,0,0,1,3.15,9.75c0,5-1.52,8.69-4.57,11l-76.33,58.51L396,559.65q4.53,3.84,4.53,11.36a15.3,15.3,0,0,1-3.15,9.77c-2.09,2.67-4.46,4-7.09,4-2.06,0-4.28-.95-6.66-2.87L302,519.54Q295.7,515.07,295.7,506.77Z"/><path class="e" d="M552.21,419,468.09,603.77a6.56,6.56,0,0,1-6.28,4.17,10.51,10.51,0,0,1-7.58-3.59,12.61,12.61,0,0,1-3.51-9.19,26.1,26.1,0,0,1,2.47-10.54L537.37,400q2.08-4.37,6.51-4.37a10.54,10.54,0,0,1,7.42,3.43,12.06,12.06,0,0,1,3.5,9A25.73,25.73,0,0,1,552.21,419Z"/><path class="e" d="M708.22,496.36v10.41q0,8.16-6,12.81l-81.67,62.33c-2.39,1.92-4.65,2.87-6.79,2.87q-3.94,0-7.09-3.83a14.86,14.86,0,0,1-3.14-9.75q0-7.68,4.66-11.19l76.24-58.52-76.24-58.14q-4.66-3.86-4.66-11.54a14.9,14.9,0,0,1,3.14-9.77q3.15-3.85,7.09-3.85,3.09,0,6.79,2.88l81.65,62.47Q708.22,488.19,708.22,496.36Z"/></g></svg>